# xmcd CD database file
#
# Track frame offsets:
#	150
#	18740
#	41805
#	57985
#	86017
#	110500
#	128872
#	149300
#	168840
#	195000
#
# Disc length: 2783 seconds
#
# Revision: 0
# Processed by: cddbd v1.5PL3 Copyright (c) Steve Scherf et al.
# Submitted via: CDex 1.50beta10
#
DISCID=840add0a
DTITLE=拝郷メイコ - ミチカケ
DYEAR=2002
DGENRE=ポップス
TTITLE0=月夜
TTITLE1=トマトスープ
TTITLE2=サーカス
TTITLE3=ゆうぐれ
TTITLE4=やさしいちから
TTITLE5=木綿
TTITLE6=ブルー
TTITLE7=くちぶえ
TTITLE8=よるのなか
TTITLE9=手紙
EXTD=YEAR: 2002
EXTT0=
EXTT1=
EXTT2=
EXTT3=
EXTT4=
EXTT5=
EXTT6=
EXTT7=
EXTT8=
EXTT9=
PLAYORDER=
